<svg version="1.1" id="Layer_1" xmlns="http://www.w3.org/2000/svg" xmlns:xlink="http://www.w3.org/1999/xlink" x="0px" y="0px"
	 width="100%" viewBox="0 0 200 200" enable-background="new 0 0 200 200" xml:space="preserve">
<path fill="#F75959" opacity="1.000000" stroke="none" 
	d="
M110.000000,201.000000 
	C73.355949,201.000000 37.211899,201.000000 1.033923,201.000000 
	C1.033923,134.397644 1.033923,67.795280 1.033923,1.096454 
	C67.560547,1.096454 134.121292,1.096454 200.841003,1.096454 
	C200.841003,67.666367 200.841003,134.333145 200.841003,201.000000 
	C170.795563,201.000000 140.647781,201.000000 110.000000,201.000000 
M114.799530,108.421249 
	C111.982025,109.835548 109.058365,111.079636 106.394844,112.740829 
	C105.186478,113.494476 103.838814,115.002083 103.694664,116.294823 
	C103.317184,119.679962 103.567352,123.135086 103.567352,127.099121 
	C105.660637,126.258690 107.061722,125.826889 108.341599,125.161835 
	C119.531837,119.347237 130.557846,113.190010 141.945587,107.795158 
	C146.498795,105.638115 145.684906,102.393318 146.067017,98.845245 
	C146.463242,95.165932 144.256821,93.956291 141.662903,92.633560 
	C131.611206,87.507790 121.599655,82.303368 111.551674,77.170280 
	C109.152672,75.944725 106.670654,74.881691 104.043144,73.658394 
	C102.523933,85.947174 102.614922,86.124352 112.666801,91.066422 
	C113.411209,91.432419 114.203094,91.704262 114.937668,92.087440 
	C119.940109,94.696907 124.933098,97.324501 130.508652,100.250359 
	C124.872681,103.173309 120.162041,105.616364 114.799530,108.421249 
M78.060471,116.530235 
	C83.944244,113.457855 89.683540,110.051094 95.760384,107.425583 
	C100.127518,105.538742 98.740463,102.187073 99.109940,99.096642 
	C99.475388,96.039810 98.318230,94.267334 95.534874,92.881699 
	C85.139610,87.706635 74.864571,82.290565 64.517876,77.017006 
	C62.231663,75.851761 59.836777,74.899719 57.343052,73.782822 
	C56.177162,86.139824 56.174057,86.146019 66.392723,91.269691 
	C68.914780,92.534256 71.497238,93.681473 73.992622,94.995270 
	C77.080322,96.620888 80.106209,98.363899 83.632355,100.318733 
	C80.053108,102.193085 77.265015,103.656738 74.473557,105.113907 
	C71.824837,106.496559 69.189003,107.905144 66.518967,109.245476 
	C56.201069,114.424942 56.196209,114.416534 57.165115,126.083199 
	C57.176537,126.220718 57.299561,126.348961 57.654339,127.012077 
	C64.220650,123.629837 70.805504,120.238037 78.060471,116.530235 
z"/>
<path fill="#FFFCFC" opacity="1.000000" stroke="none" 
	d="
M115.125458,108.240341 
	C120.162041,105.616364 124.872681,103.173309 130.508652,100.250359 
	C124.933098,97.324501 119.940109,94.696907 114.937668,92.087440 
	C114.203094,91.704262 113.411209,91.432419 112.666801,91.066422 
	C102.614922,86.124352 102.523933,85.947174 104.043144,73.658394 
	C106.670654,74.881691 109.152672,75.944725 111.551674,77.170280 
	C121.599655,82.303368 131.611206,87.507790 141.662903,92.633560 
	C144.256821,93.956291 146.463242,95.165932 146.067017,98.845245 
	C145.684906,102.393318 146.498795,105.638115 141.945587,107.795158 
	C130.557846,113.190010 119.531837,119.347237 108.341599,125.161835 
	C107.061722,125.826889 105.660637,126.258690 103.567352,127.099121 
	C103.567352,123.135086 103.317184,119.679962 103.694664,116.294823 
	C103.838814,115.002083 105.186478,113.494476 106.394844,112.740829 
	C109.058365,111.079636 111.982025,109.835548 115.125458,108.240341 
z"/>
<path fill="#FFFCFC" opacity="1.000000" stroke="none" 
	d="
M77.725418,116.688240 
	C70.805504,120.238037 64.220650,123.629837 57.654339,127.012077 
	C57.299561,126.348961 57.176537,126.220718 57.165115,126.083199 
	C56.196209,114.416534 56.201069,114.424942 66.518967,109.245476 
	C69.189003,107.905144 71.824837,106.496559 74.473557,105.113907 
	C77.265015,103.656738 80.053108,102.193085 83.632355,100.318733 
	C80.106209,98.363899 77.080322,96.620888 73.992622,94.995270 
	C71.497238,93.681473 68.914780,92.534256 66.392723,91.269691 
	C56.174057,86.146019 56.177162,86.139824 57.343052,73.782822 
	C59.836777,74.899719 62.231663,75.851761 64.517876,77.017006 
	C74.864571,82.290565 85.139610,87.706635 95.534874,92.881699 
	C98.318230,94.267334 99.475388,96.039810 99.109940,99.096642 
	C98.740463,102.187073 100.127518,105.538742 95.760384,107.425583 
	C89.683540,110.051094 83.944244,113.457855 77.725418,116.688240 
z"/>
</svg>